<svg xmlns="http://www.w3.org/2000/svg" viewBox="0 0 303.36 127.68"><defs><style>.cls-1,.cls-12,.cls-13,.cls-2,.cls-5{fill:#fff;}.cls-2,.cls-5{font-size:30.69px;font-family:Montserrat-ExtraBold, Montserrat;font-weight:700;}.cls-2{letter-spacing:0em;}.cls-3{letter-spacing:0.02em;}.cls-4{letter-spacing:0.01em;}.cls-5{letter-spacing:0.03em;}.cls-6{letter-spacing:0.01em;}.cls-7{letter-spacing:0.03em;}.cls-8{letter-spacing:0em;}.cls-9{letter-spacing:0.01em;}.cls-10,.cls-11{fill:none;}.cls-10,.cls-11,.cls-12,.cls-13{stroke:#fff;stroke-miterlimit:10;}.cls-10{stroke-width:3px;}.cls-11{stroke-width:2px;}.cls-12{stroke-width:0.5px;}.cls-13{stroke-width:0.25px;}.cls-14{fill:red;}</style></defs><title>SUL_White_FULL_LOGO</title><g id="Layer_12" data-name="Layer 12"><path class="cls-1" d="M117.17,19.57c-.62,3.32-1.28,6.64-2,9.94a2.2,2.2,0,0,1-3.33,1.37,30,30,0,0,0-8.61-2.77,15.23,15.23,0,0,0-6.88.12A4.3,4.3,0,0,0,93,31.52a4.25,4.25,0,0,0,1.76,4.53c1.78,1.27,3.7,2.35,5.54,3.54,2.34,1.52,4.77,2.91,7,4.63,4.87,3.82,6.31,9.13,5.88,15-.61,8.43-6.51,15-16.3,17.15-3.22.71-6.54.92-9.81,1.36a47.34,47.34,0,0,1-17.59-3.88c-1.63-.73-2-1.44-1.68-3.2.62-3.12,1.31-6.23,2-9.35a2.3,2.3,0,0,1,3.66-1.52,24.6,24.6,0,0,0,11.06,3.87,27.42,27.42,0,0,0,5.93-.31,3.73,3.73,0,0,0,3.22-3.15c.36-1.86,0-3.7-1.63-4.82A52.93,52.93,0,0,0,86.1,52a30,30,0,0,1-8.39-5.66c-3.51-3.61-4.47-8.09-4.22-12.92.43-8.27,5.71-14.83,14.1-17.59A38.19,38.19,0,0,1,102,14.3,55.27,55.27,0,0,1,115.55,17,2,2,0,0,1,117.17,19.57Z"/><path class="cls-1" d="M183.38,64.68c-3.45,6.89-9.35,10.72-16.86,12.07-2.85.51-5.77.69-8.66,1-4.81-.22-9.48-.8-13.81-3.06-6-3.13-8.81-8.27-9.6-14.78-.71-5.83.65-11.43,1.76-17,1-4.88,2-9.74,3.08-14.6a16,16,0,0,1,15.47-12.6c1.28,0,2.56,0,3.84,0s1.64.43,1.36,1.71c-1.05,4.9-2.14,9.8-3.18,14.7-1.37,6.46-2.75,12.93-4.05,19.4-.5,2.54-.53,5.13.87,7.44,2.25,3.72,8.51,4.22,11.92,1a14.71,14.71,0,0,0,3.94-7.79c1.53-6.67,2.91-13.37,4.35-20.06.44-2,.8-4.06,1.34-6.06a13.94,13.94,0,0,1,13.52-10.35h5c1.53,0,1.85.42,1.53,1.89-.7,3.23-1.38,6.46-2.08,9.69-1.91,8.91-3.69,17.85-5.83,26.7A51.26,51.26,0,0,1,183.38,64.68Z"/><path class="cls-1" d="M251.55,68.48a6.91,6.91,0,0,1-6.42,4.76q-19.62,0-39.23,0c-.19,0-.39,0-.69,0,.73-3.5,1.44-7,2.17-10.41q3.44-16.29,6.89-32.57c.82-3.89,1.62-7.79,2.46-11.67A8,8,0,0,1,225,11.91h11.49c-3.3,15.66-6.57,31.22-9.88,46.94h27.42C253.2,62.18,252.49,65.37,251.55,68.48Z"/><circle class="cls-1" cx="121.44" cy="71.41" r="2.82"/><circle class="cls-1" cx="195.34" cy="71.41" r="2.82"/><text class="cls-2" transform="translate(62.07 112.84)">E<tspan class="cls-3" x="20.61" y="0">-</tspan><tspan class="cls-4" x="33.23" y="0">M</tspan></text><text class="cls-5" transform="translate(153.18 112.84)">B<tspan class="cls-6" x="24.61" y="0">I</tspan><tspan class="cls-7" x="35.23" y="0">L</tspan><tspan class="cls-6" x="54.84" y="0">I</tspan><tspan class="cls-8" x="65.46" y="0">T</tspan><tspan class="cls-9" x="85.07" y="0">Y</tspan></text><circle class="cls-10" cx="139.11" cy="102.53" r="10.9"/><circle class="cls-11" cx="138.63" cy="102.05" r="3.29"/><path class="cls-12" d="M128.82,99.24l.3.41a2.35,2.35,0,0,0,1.91,1h0a5,5,0,0,0,2-.41,17.19,17.19,0,0,1,3.19-1.11l-.86,6.46-2.18-1.64a4.92,4.92,0,0,0-1.32-.21h0a3.91,3.91,0,0,0-2.89,1.19l-.09.09Z"/><path class="cls-13" d="M148.54,99.53l-.3.4a2.35,2.35,0,0,1-1.9,1h0a5,5,0,0,1-2-.41,16.94,16.94,0,0,0-3.19-1.11l.47,5.58,2.58-.76a4.83,4.83,0,0,1,1.31-.2h0a3.91,3.91,0,0,1,2.89,1.2l.08.09Z"/><path class="cls-12" d="M141.38,113.56l-.39-.3a2.39,2.39,0,0,1-.93-1.93h0a5.17,5.17,0,0,1,.46-2,38.75,38.75,0,0,0,1.88-4.68l-6.58.52,1,3.93a5.31,5.31,0,0,1,.17,1.32v0a3.88,3.88,0,0,1-1.26,2.86l-.09.08Z"/><path class="cls-14" d="M166.46,28.9,154.85,45.09h7.86l-3.08,11.17c.08-.34,11.54-16.09,11.54-16.09l-7.29.09Z"/></g></svg>